<?xml version="1.0" encoding="utf-8"?>
<!-- Generator: Adobe Illustrator 16.0.3, SVG Export Plug-In . SVG Version: 6.00 Build 0)  -->
<!DOCTYPE svg PUBLIC "-//W3C//DTD SVG 1.1//EN" "http://www.w3.org/Graphics/SVG/1.1/DTD/svg11.dtd">
<svg version="1.1" id="레이어_1" xmlns="http://www.w3.org/2000/svg" xmlns:xlink="http://www.w3.org/1999/xlink" x="0px"
	 y="0px" width="334.426px" height="57.377px" viewBox="0 0 334.426 57.377" enable-background="new 0 0 334.426 57.377"
	 xml:space="preserve">
<g>
	<path fill="#FFFFFF" d="M55.219,14.551h7.139v32.47h-7.139V14.551z"/>
	<path fill="#FFFFFF" d="M68.315,24.191c0.728-2.091,1.78-3.917,3.161-5.479c1.379-1.561,3.062-2.773,5.048-3.639
		c1.985-0.862,4.207-1.295,6.663-1.295c2.455,0,4.675,0.433,6.662,1.295c1.985,0.866,3.675,2.078,5.07,3.639
		c1.395,1.562,2.447,3.388,3.161,5.479c0.712,2.093,1.068,4.337,1.068,6.731c0,2.336-0.356,4.525-1.068,6.57
		c-0.713,2.048-1.766,3.844-3.161,5.39c-1.395,1.547-3.085,2.753-5.07,3.616c-1.987,0.862-4.208,1.295-6.662,1.295
		c-2.456,0-4.678-0.433-6.663-1.295c-1.986-0.863-3.668-2.062-5.048-3.594c-1.38-1.53-2.433-3.327-3.161-5.39
		s-1.092-4.258-1.092-6.594C67.223,28.528,67.587,26.284,68.315,24.191z M74.863,34.992c0.334,1.29,0.855,2.448,1.569,3.479
		c0.712,1.03,1.629,1.842,2.752,2.433c1.121,0.593,2.456,0.888,4.002,0.888s2.888-0.302,4.023-0.91
		c1.138-0.604,2.055-1.416,2.751-2.434c0.697-1.016,1.212-2.166,1.547-3.456c0.333-1.286,0.5-2.646,0.5-4.069
		c0-1.486-0.167-2.895-0.5-4.229c-0.335-1.334-0.85-2.517-1.547-3.548s-1.614-1.848-2.751-2.456
		c-1.136-0.605-2.477-0.909-4.023-0.909c-1.547,0-2.888,0.304-4.025,0.909c-1.137,0.608-2.054,1.425-2.751,2.456
		c-0.697,1.031-1.213,2.214-1.547,3.548c-0.333,1.333-0.5,2.743-0.5,4.229C74.363,32.347,74.529,33.706,74.863,34.992z"/>
	<path fill="#FFFFFF" d="M112.881,14.551h7.322l12.142,32.47h-7.413l-2.456-7.229h-12.143l-2.545,7.229h-7.23L112.881,14.551z
		 M112.198,34.469h8.414l-4.093-11.914h-0.092L112.198,34.469z"/>
	<path fill="#FFFFFF" d="M156.809,25.465c-0.213-1.606-1-2.957-2.365-4.046c-1.365-1.093-2.939-1.638-4.727-1.638
		c-1.547,0-2.889,0.304-4.026,0.909c-1.138,0.608-2.054,1.425-2.751,2.456s-1.213,2.214-1.547,3.548
		c-0.333,1.333-0.499,2.743-0.499,4.229c0,1.426,0.166,2.783,0.499,4.069c0.334,1.29,0.856,2.448,1.569,3.479
		c0.712,1.03,1.63,1.842,2.751,2.433c1.121,0.593,2.457,0.888,4.004,0.888c2.119,0,3.811-0.659,5.068-1.98
		c1.258-1.316,2.023-3.082,2.297-5.295h6.91c-0.178,2.002-0.65,3.818-1.408,5.457s-1.766,3.038-3.023,4.205
		c-1.257,1.167-2.723,2.063-4.389,2.685c-1.668,0.62-3.486,0.932-5.455,0.932c-2.457,0-4.678-0.432-6.663-1.295
		c-1.987-0.863-3.669-2.062-5.049-3.594c-1.38-1.53-2.433-3.327-3.16-5.39c-0.727-2.063-1.091-4.258-1.091-6.594
		c0-2.394,0.364-4.638,1.091-6.731c0.729-2.091,1.78-3.917,3.16-5.479c1.38-1.561,3.062-2.773,5.049-3.639
		c1.985-0.862,4.206-1.295,6.663-1.295c1.787,0,3.486,0.258,5.092,0.772c1.607,0.515,3.039,1.272,4.297,2.274
		c1.258,1,2.289,2.229,3.092,3.682c0.805,1.457,1.313,3.109,1.522,4.958L156.809,25.465L156.809,25.465z"/>
	<path fill="#FFFFFF" d="M177.727,14.551h7.324l12.143,32.47h-7.416l-2.453-7.229h-12.143l-2.549,7.229h-7.23L177.727,14.551z
		 M177.047,34.469h8.412l-4.094-11.914h-0.091L177.047,34.469z"/>
	<path fill="#FFFFFF" d="M200.012,14.551h14.004c4.398,0,7.951,1.371,10.666,4.115c2.711,2.744,4.068,6.724,4.068,11.938
		c0,2.396-0.303,4.586-0.91,6.57c-0.605,1.988-1.531,3.723-2.771,5.207c-1.244,1.485-2.791,2.63-4.639,3.434
		c-1.852,0.804-3.988,1.205-6.414,1.205h-14.004V14.551z M207.148,41.019h6.367c1.092,0,2.114-0.176,3.069-0.523
		s1.812-0.909,2.568-1.684c0.758-0.773,1.357-1.787,1.799-3.047c0.438-1.257,0.658-2.752,0.658-4.479
		c0-3.486-0.713-6.146-2.137-7.981c-1.426-1.833-3.834-2.75-7.23-2.75h-5.096L207.148,41.019L207.148,41.019z"/>
	<path fill="#FFFFFF" d="M233.708,14.551h24.285v6.003h-17.146v6.958h15.736v5.548h-15.736v7.959h17.51v6.002h-24.648V14.551
		L233.708,14.551z"/>
	<path fill="#FFFFFF" d="M263.174,14.551h10.051l7.596,22.328h0.09l7.187-22.328h10.051v32.47h-6.688V24.01h-0.088l-7.957,23.011
		h-5.504l-7.957-22.783h-0.093v22.783h-6.687V14.551L263.174,14.551z"/>
	<path fill="#FFFFFF" d="M312.834,34.377l-11.957-19.826h8.045l7.596,12.824l7.549-12.824h7.959l-12.053,20.011v12.459h-7.139
		V34.377z"/>
</g>
<g>
	<rect x="21.824" y="32.53" fill="#FFFFFF" width="5.671" height="19.516"/>
	<g>
		<path fill="#FFFFFF" d="M43.619,28.485c0-10.454-8.505-18.959-18.959-18.959S5.7,18.031,5.7,28.485
			c0,8.382,5.564,15.792,13.569,18.165v-6.031c-4.75-2.121-7.897-6.903-7.897-12.133c0-7.327,5.961-13.289,13.289-13.289
			c7.327,0,13.288,5.962,13.288,13.289c0,5.192-3.102,9.946-7.794,12.09v6.042C38.102,44.21,43.619,36.831,43.619,28.485z"/>
	</g>
</g>
</svg>
